<svg width="42" height="42" viewBox="0 0 42 42" fill="none" xmlns="http://www.w3.org/2000/svg">
<path d="M23.4298 3.04504C22.7535 3.14067 21.9476 4.64021 21.327 5.07902C20.3807 5.74811 19.5722 7.0216 18.7195 7.87427C17.728 8.86577 17.0316 10.5519 16.1962 11.7757C14.2789 14.5842 12.1775 17.292 10.1401 19.9593C8.78845 21.7286 7.88639 23.9378 6.35502 25.5259C4.9318 27.0019 3.56864 28.5771 2.14941 30.0221C1.68819 30.4917 1.53379 31.3769 1.01856 31.9015C0.405624 32.5256 2.04303 31.949 2.40174 31.949C4.02209 31.949 5.77987 31.743 7.36437 31.2948C7.71283 31.1963 8.13177 31.1105 8.45783 30.9261C8.91198 30.6693 9.53098 31.0113 10.0092 30.8309C10.8979 30.4958 12.9563 31.2671 13.6354 30.4028C13.9858 29.9568 13.7282 28.7655 13.9251 28.2142C14.1526 27.5773 14.0365 26.8097 14.3457 26.1801C14.8751 25.1021 15.0213 23.5794 15.4391 22.4095C16.0026 20.8317 16.1099 18.9892 16.7382 17.39C17.3348 15.8715 17.6708 14.3272 18.4765 12.9413C19.4864 11.2046 21.4679 5.20141 20.8877 7.23197C20.732 7.77699 20.1696 8.25591 19.8597 8.65932C19.2814 9.41203 18.8419 10.3026 18.2896 11.0858C17.6258 12.0272 17.084 13.0083 16.2709 13.7503C16.1747 13.838 15.2179 14.8899 15.2148 14.8802C15.1068 14.5365 15.6621 13.89 15.8036 13.7027C16.6011 12.6472 17.3077 11.4479 18.0466 10.3246C18.7594 9.24099 21.4755 6.86739 20.4391 7.37469C19.0898 8.03521 17.9181 10.3691 17.0747 11.7281C15.2616 14.6493 13.491 17.533 11.7849 20.554C9.6216 24.3847 6.27405 27.4401 3.37371 30.2957C3.24032 30.4271 1.13997 32.2537 2.02791 31.2592C4.31989 28.6921 6.82499 26.4097 8.95315 23.6109C10.2747 21.873 12.1963 20.3668 13.1681 18.2465C13.3132 17.9298 13.5308 17.6203 13.7569 17.39C13.9059 17.2383 12.9742 18.0422 12.8317 18.1989C9.31833 22.0578 6.13263 26.2396 3.03726 30.6169C2.70888 31.0813 1.56062 32.1248 1.56062 30.9856C1.56062 30.0616 2.23304 29.5182 2.64473 28.8446C3.0001 28.2631 3.51218 27.6573 3.91576 27.1436C4.36334 26.574 4.746 25.5555 5.26156 25.1453C5.74971 24.757 6.68378 23.429 6.78493 22.8497C6.95176 21.8942 8.09034 21.5427 8.28026 20.6967C8.43583 20.0037 9.26539 19.0117 9.72886 18.6746C10.5926 18.0465 11.3851 16.7474 11.9905 15.7842C13.0872 14.0396 14.2422 12.2926 15.5233 10.7528C16.1927 9.94808 16.4309 8.68363 17.2896 8.07649C17.8824 7.65734 18.5537 6.6675 18.8877 5.92355C19.1833 5.26529 19.6461 4.25792 20.1027 3.73493C20.228 3.59142 20.9064 3.23955 20.9064 3.68735C20.9064 4.04513 20.5395 4.40556 20.3924 4.67461C19.9435 5.49594 19.5193 6.43325 19.1681 7.32712C18.0132 10.2668 16.6196 12.8347 15.1868 15.5702C14.7122 16.4762 14.2138 17.6433 13.6634 18.4605C13.2095 19.1346 12.6799 19.9863 13.6447 18.6984C15.6095 16.0759 17.3096 13.0943 19.3177 10.5387C20.383 9.18278 17.5167 13.6139 16.6448 15.1777C14.3761 19.2462 6.48248 30.3641 8.86904 26.4062C12.2581 20.7857 16.1485 15.7331 19.7756 10.3722C19.8715 10.2303 21.0455 8.88826 20.5887 9.77742C19.9312 11.0571 18.9511 12.1065 18.1027 13.1674C15.2715 16.7075 12.5493 20.3827 9.55129 23.7061C9.10526 24.2005 8.63247 24.8817 8.12138 25.2643C7.9347 25.404 8.73663 24.8963 8.8597 24.7766C9.02351 24.6171 10.5117 23.4333 9.82231 24.3365C9.01967 25.3881 7.96487 26.0478 7.11203 27.0247C6.80628 27.375 6.57637 27.7442 6.30829 28.1904C6.07552 28.5778 5.74786 28.8773 5.53259 29.2609C5.44177 29.4227 6.57061 29.3563 6.70081 29.3323C8.46477 29.0057 13.8104 28.7375 12.0279 28.7375C10.8213 28.7375 9.55882 28.6515 8.38306 29.0706C7.60683 29.3472 6.81968 29.827 6.02792 30.0103C4.52896 30.3571 7.53459 29.9037 7.78493 29.8556C9.99588 29.4303 12.1091 28.7717 14.2709 28.1428C15.1074 27.8995 12.8526 28.0952 12.5326 28.0952C11.8879 28.0952 10.3896 28.421 10.0092 27.4529C9.48546 26.1197 11.8036 25.3369 11.8036 24.158C11.8036 24.1027 11.052 24.7665 10.9812 24.836C10.6427 25.1684 10.2812 25.5865 10.0653 26.0613C9.96392 26.2841 9.44478 27.4539 9.21484 27.5124C8.95602 27.5782 9.83157 26.2301 9.90643 26.1563C11.1805 24.9009 12.3369 23.5066 13.5419 22.1479C14.9426 20.5687 16.2738 18.8851 17.5793 17.2234C18.7351 15.7525 15.2726 20.1716 14.1214 21.6483C12.3269 23.9501 10.775 26.5448 9.13072 29.023C8.69659 29.6773 8.07341 29.9268 7.70082 30.6645C7.45897 31.1433 6.81649 31.8066 6.35502 31.9372C5.6128 32.1471 5.76623 31.2309 5.76623 30.5574C5.76623 29.2293 6.4525 29.0439 7.01857 28.0834C7.51375 27.243 8.01575 26.4217 8.58867 25.6924C9.63393 24.3622 6.35857 28.1694 5.1681 29.2847C5.10613 29.3427 3.01552 30.855 3.44847 29.808C3.7712 29.0276 4.63508 28.3711 5.11203 27.7503C6.45552 26.0014 8.05946 24.6595 9.39241 22.8853C11.7968 19.685 14.4824 16.4178 16.5046 12.7987C17.4542 11.099 18.3827 8.94324 18.7289 6.88702C18.9589 5.52087 19.4832 4.24883 19.8877 2.96178C20.0523 2.43814 19.5325 3.99683 19.3924 4.53188C19.1379 5.50364 19.4937 4.74524 19.9345 4.32967C20.3827 3.90712 20.7581 3.32902 21.1494 2.83094C21.4489 2.44978 23.2294 0.861643 22.7195 2.40273C22.1977 3.98006 21.5111 5.98993 21.4111 7.70775C21.3479 8.79315 20.4018 9.49789 20.4018 10.5387" stroke="#483171" stroke-linecap="round"/>
<path d="M24 1.27273L39.5885 31.8182H8.41154L24 1.27273Z" fill="#7E57C2"/>
</svg>
