<svg max-width="20px" max-height="20px" viewBox="0 0 16 16" fill="none" xmlns="http://www.w3.org/2000/svg"><g id="SVGRepo_bgCarrier" stroke-width="0"></g><g id="SVGRepo_tracerCarrier" stroke-linecap="round" stroke-linejoin="round"></g><g id="SVGRepo_iconCarrier"> <path d="M3 1H1V3H3C8.52285 3 13 7.47715 13 13V15H15V13C15 6.37258 9.62742 1 3 1Z" fill="#ff5900"></path> <path d="M3 6H1V8H3C5.76142 8 8 10.2386 8 13V15H10V13C10 9.13401 6.86599 6 3 6Z" fill="#ff5900"></path> <path d="M3 15C4.10457 15 5 14.1046 5 13C5 11.8954 4.10457 11 3 11C1.89543 11 1 11.8954 1 13C1 14.1046 1.89543 15 3 15Z" fill="#ff5900"></path> </g></svg>